<svg width="543" height="447" viewBox="0 0 543 447" fill="none" xmlns="http://www.w3.org/2000/svg">
<g clip-path="url(#clip0_5_141)">
<path d="M506.263 385.332L507.191 362.861C516.867 357.293 527.659 354.351 538.631 354.293C523.531 367.584 525.418 393.207 515.181 411.081C511.948 416.63 507.597 421.324 502.451 424.816C497.304 428.308 491.494 430.509 485.45 431.254L472.814 439.584C471.08 429.177 471.462 418.488 473.934 408.255C476.406 398.022 480.909 388.488 487.133 380.309C490.667 375.758 494.719 371.704 499.194 368.243C502.22 376.835 506.263 385.332 506.263 385.332Z" fill="#F2F2F2"/>
<path d="M314.647 445.178C308.211 444.685 306.533 446.052 296.795 445.178H278.944L281.266 399.18L309.37 411.305L449.031 414.997L448.949 415.252C448.886 415.448 442.685 434.977 447.532 442.372L447.733 442.678L447.341 442.682L319.224 443.947C317.825 443.961 316.035 445.284 314.647 445.178Z" fill="#F2F2F2"/>
<path d="M321.891 445.779C309.459 444.827 296.585 450.031 285.841 444.156L277.252 444.716L277.227 444.638C277.161 444.425 273.103 410.053 281.306 396.726L281.667 396.139L281.949 399.296L279.245 442.113L285.238 439.96C299.793 447.336 317.103 442.464 333.762 442.396L447.133 441.945C449.508 441.937 451.486 443.684 451.549 445.841L451.555 446.051L328.739 446.041C326.449 446.041 324.166 445.954 321.891 445.779Z" fill="#CCCCCC"/>
<path d="M441.157 424.273L313.576 421.543L313.445 421.491L283.302 409.327L283.872 407.691L313.885 419.803L441.189 422.526L441.157 424.273Z" fill="#E6E6E6"/>
<path d="M440.476 431.629L312.895 428.899L312.765 428.846L282.621 416.683L283.191 415.047L313.205 427.158L440.509 429.882L440.476 431.629Z" fill="#E6E6E6"/>
<path d="M439.795 438.985L312.214 436.254L312.084 436.202L281.94 424.038L282.51 422.401L312.524 434.514L439.828 437.238L439.795 438.985Z" fill="#E6E6E6"/>
<path d="M322.773 415.472C310.944 414.611 299.411 411.107 288.908 405.184L280.065 400.134L280.296 397.637C280.361 397.271 280.549 396.943 280.824 396.717C281.099 396.491 281.443 396.382 281.788 396.412L282.569 396.423L401.55 398.308C409.337 398.412 417.053 399.92 424.378 402.769L450.302 412.903L450.288 413.05C450.071 415.402 447.868 417.219 445.273 417.187L328.073 415.708C326.3 415.686 324.533 415.607 322.773 415.472Z" fill="#E6E6E6"/>
<path d="M450.053 413.443L450.026 413.442L307.346 409.921L307.247 409.873L281.523 397.046L281.784 396.617L282.565 396.628L307.585 409.109L448.942 412.593L450.075 412.622L450.053 413.443Z" fill="#CCCCCC"/>
<path d="M339.132 397.525L337.321 397.497L296.43 396.846L294.493 396.817C303.835 407.527 324.494 410.206 354.774 406.057L339.132 397.525Z" fill="#CCCCCC"/>
<path d="M454.096 141.374L456.591 147.621L452.514 169.809L410.923 163.583L411.255 136.527L412.09 130.602L454.096 141.374Z" fill="#FFB6B6"/>
<path d="M475.584 428.928H466.408L462.041 390.821H475.584V428.928Z" fill="#FFB6B6"/>
<path d="M448.29 441.825C448.291 442.944 448.704 444.017 449.439 444.808C450.174 445.6 451.171 446.045 452.211 446.045H469.667L472.676 439.358L473.845 446.045H480.425L478.575 422.157L475.584 421.969L465.535 421.325L463.916 421.216V427.983L449.984 438.347C449.461 438.736 449.034 439.255 448.739 439.861C448.444 440.467 448.29 441.141 448.29 441.825Z" fill="#2F2E41"/>
<path d="M390.773 385.243H381.597L376.2 329.142L393.441 328.033L390.773 385.243Z" fill="#FFB6B6"/>
<path d="M363.479 398.141C363.48 399.26 363.893 400.333 364.628 401.124C365.363 401.915 366.36 402.361 367.399 402.361H384.856L387.865 395.673L389.034 402.361H395.613L393.764 378.473L391.095 378.305L380.871 377.641L379.104 377.532V384.299L365.172 394.663C364.65 395.052 364.223 395.571 363.928 396.177C363.633 396.783 363.479 397.457 363.479 398.141Z" fill="#2F2E41"/>
<path d="M479.479 396.066H479.443L477.679 334.106C478.821 331.734 479.4 329.095 479.366 326.424C479.331 323.753 478.684 321.132 477.481 318.796L477.229 318.303L477.884 315.034C478.725 310.833 478.339 306.455 476.778 302.5L475.132 244.703C481.014 203.662 452.984 176.897 452.984 176.897L455.56 155.387L410.224 156.496L410.996 176.897L401.981 210.244C397.237 260.009 365.308 291.288 370.161 338.877C370.171 339.014 370.153 339.151 370.106 339.279C369.614 340.891 369.44 342.597 369.597 344.285C369.754 345.974 370.238 347.608 371.018 349.083C371.22 349.46 371.358 349.872 371.428 350.3C372.428 358.643 372.558 348.09 373.883 356.359L373.625 356.499C372.697 356.844 372.299 358.229 372.736 359.592C373.173 360.955 374.279 361.78 375.208 361.435L399.443 361.714C400.371 361.369 400.77 359.984 400.333 358.621C399.896 357.258 398.789 356.433 397.861 356.778L396.353 357.599L398.875 348.713L399.76 347.824C400.183 347.398 400.512 346.875 400.721 346.293C400.93 345.711 401.015 345.086 400.968 344.464C400.921 343.842 400.744 343.239 400.45 342.701C400.156 342.163 399.753 341.704 399.271 341.357L401.784 326.918L401.427 315.997L402.162 303.607L433.962 253.995L446.827 322.525L459.969 396.756C459.662 397.054 459.432 397.431 459.3 397.852C459.168 398.274 459.139 398.724 459.215 399.161C459.336 399.771 459.65 400.317 460.104 400.706C460.558 401.094 461.123 401.3 461.703 401.288H479.543C479.917 401.288 480.286 401.194 480.621 401.015C480.956 400.836 481.248 400.576 481.475 400.256C481.701 399.935 481.856 399.563 481.927 399.167C481.997 398.772 481.983 398.364 481.883 397.976C481.733 397.418 481.416 396.928 480.981 396.583C480.547 396.238 480.019 396.056 479.479 396.066Z" fill="#2F2E41"/>
<path d="M463.614 35.9435C463.615 39.8994 462.715 43.7952 460.991 47.2889C459.268 50.7826 456.774 53.7674 453.729 55.9812C450.684 58.195 447.181 59.5702 443.528 59.986C439.874 60.4018 436.181 59.8455 432.774 58.3661C429.366 56.8866 426.348 54.5291 423.984 51.5005C421.62 48.472 419.983 44.865 419.217 40.9962C418.45 37.1274 418.577 33.1151 419.586 29.3114C420.596 25.5078 422.457 22.0292 425.007 19.1809L425.115 19.065C425.294 18.8619 425.474 18.659 425.663 18.4656C425.664 18.4656 425.665 18.4653 425.666 18.4649C425.667 18.4644 425.668 18.4637 425.669 18.4628C425.67 18.4619 425.67 18.4608 425.671 18.4596C425.671 18.4584 425.672 18.4572 425.672 18.4559C425.929 18.2535 426.167 18.0236 426.381 17.7696C429.411 13.2106 432.846 9.38791 441.168 11.7761C453.149 15.2144 463.614 22.5934 463.614 35.9435Z" fill="#2F2E41"/>
<path d="M340.314 25.5977C340.263 26.8907 340.476 28.18 340.938 29.3747C341.4 30.5695 342.1 31.6407 342.988 32.5128C343.876 33.385 344.931 34.0368 346.078 34.4226C347.225 34.8083 348.437 34.9184 349.628 34.7453L407.515 85.8963L416.357 69.1634L356.676 24.1453C356.273 22.01 355.157 20.1079 353.539 18.7996C351.92 17.4912 349.913 16.8675 347.896 17.0465C345.879 17.2256 343.993 18.1949 342.596 19.771C341.198 21.347 340.386 23.4202 340.314 25.5977V25.5977Z" fill="#FFB6B6"/>
<path d="M431.958 100.981C431.958 100.981 431.94 99.1391 422.738 99.2099C411.315 99.2978 379.856 81.641 382.608 65.0119C381.302 65.6475 379.836 65.7971 378.442 65.4371C377.048 65.077 375.805 64.2278 374.908 63.0233L390.223 47.1471C395.029 47.4966 395.078 50.959 394.666 52.9472L406.974 58.2131L439.032 78.0432L433.371 97.9621L431.958 100.981Z" fill="#F50057"/>
<path d="M435.638 61.8005C446.033 61.8005 454.46 52.7274 454.46 41.5351C454.46 30.3429 446.033 21.2697 435.638 21.2697C425.243 21.2697 416.816 30.3429 416.816 41.5351C416.816 52.7274 425.243 61.8005 435.638 61.8005Z" fill="#FFB7B7"/>
<path d="M409.769 142.333C408.73 143.827 408.199 145.66 408.266 147.526C408.333 149.391 408.994 151.175 410.138 152.578C410.147 153.173 410.23 153.747 411.012 155.877C411.114 156.084 411.234 156.28 411.371 156.462C411.396 156.507 411.424 156.55 411.453 156.591C412.277 157.738 413.423 158.569 414.72 158.959L449.174 169.313L453.729 170.68L454.529 170.918L454.971 164.22C455.996 163.306 456.682 162.027 456.907 160.615C457.131 159.203 456.879 157.751 456.195 156.521L455.56 155.392L459.259 144.681L459.618 143.621L469.051 116.285L469.06 114.462L469.078 112.579L469.17 99.441C469.175 95.3003 468.288 91.2148 466.579 87.505C464.871 83.7953 462.388 80.5622 459.324 78.0594C456.533 75.7635 453.316 74.1414 449.891 73.3035L449.818 73.2936L446.091 67.8937L430.972 69.5186L429.72 72.283L428.202 75.6121L417.242 82.6369L413.496 92.01L410.966 98.3511C407.046 101.383 404.708 105.277 404.036 109.914C402.601 119.763 409.006 129.621 409.769 130.751L409.963 142.056L409.769 142.333Z" fill="#F50057"/>
<path d="M455.336 46.8479C455.165 46.8188 454.995 46.7801 454.824 46.7511C451.888 46.1904 448.952 45.6395 446.025 45.069L445.756 37.9253L442.21 44.3247C434.12 47.2151 426.551 45.5814 419.432 41.9757C417.083 40.7753 414.804 39.4227 412.608 37.9253C411.885 25.8435 416.421 18.1088 424.863 18.92C425.172 18.9496 425.393 18.6107 425.663 18.4656C425.664 18.4656 425.665 18.4653 425.666 18.4649C425.667 18.4644 425.668 18.4637 425.669 18.4628C425.67 18.4619 425.67 18.4608 425.671 18.4596C425.671 18.4584 425.671 18.4571 425.671 18.4559C426.129 18.2239 426.596 18.0016 427.063 17.7986C430.718 16.2606 434.704 15.8711 438.556 16.6754C442.409 17.4797 445.97 19.4447 448.827 22.342C454.573 28.2486 457.159 38.0026 455.336 46.8479Z" fill="#2F2E41"/>
<path d="M454.824 46.7511C454.824 46.7511 449.249 24.3431 425.348 19.1712C425.321 19.1617 425.232 19.123 425.115 19.065C425.043 19.0166 424.953 18.9683 424.863 18.92C425.133 18.7556 425.393 18.6107 425.663 18.4656C425.664 18.4656 425.665 18.4653 425.666 18.4649C425.667 18.4644 425.668 18.4637 425.669 18.4628C425.67 18.4618 425.67 18.4608 425.671 18.4596C425.671 18.4584 425.672 18.4571 425.672 18.4559C425.905 18.2239 426.138 17.9919 426.381 17.7696L427.063 17.7986C427.063 17.7986 451.044 13.7095 454.824 46.7511Z" fill="#FD6584"/>
<path d="M464.019 188.006C463.576 188.413 463.038 188.682 462.463 188.782C461.889 188.882 461.299 188.81 460.76 188.574C459.687 188.084 458.734 187.333 457.975 186.381C454.879 182.884 452.667 178.591 451.55 173.912L452.583 171.935C452.177 169.496 452.559 166.981 453.664 164.808C454.768 162.635 456.53 160.933 458.657 159.987C459.867 159.434 461.208 159.309 462.489 159.628C463.124 159.798 463.704 160.149 464.169 160.645C464.634 161.141 464.965 161.762 465.129 162.444C465.527 164.56 463.89 166.47 462.233 167.684C459.345 169.795 456.007 171.081 452.531 171.422C456.782 174.002 460.458 177.553 463.298 181.826C463.955 182.717 464.439 183.741 464.723 184.837C464.859 185.387 464.866 185.964 464.743 186.517C464.62 187.071 464.371 187.582 464.019 188.006Z" fill="#2F2E41"/>
<path d="M226.107 446.765H541.988C542.256 446.765 542.514 446.65 542.704 446.446C542.893 446.241 543 445.964 543 445.675C543 445.386 542.893 445.109 542.704 444.905C542.514 444.7 542.256 444.586 541.988 444.586H226.107C225.839 444.586 225.582 444.7 225.392 444.905C225.202 445.109 225.095 445.386 225.095 445.675C225.095 445.964 225.202 446.241 225.392 446.446C225.582 446.65 225.839 446.765 226.107 446.765Z" fill="#CCCCCC"/>
<path d="M309.999 166.671V167.241C308.861 165.805 307.7 164.382 306.551 162.959C306.068 162.365 305.585 161.771 305.102 161.177C303.056 158.677 300.999 156.186 298.93 153.703C296.85 151.228 294.77 148.753 292.666 146.29C292.161 145.696 291.655 145.102 291.138 144.508C290.724 144.009 290.274 143.545 289.793 143.122C289.308 142.687 288.75 142.355 288.149 142.144C287.459 141.938 286.73 141.93 286.035 142.12C285.242 142.318 284.483 142.627 283.713 142.887C282.92 143.172 282.138 143.444 281.345 143.716C279.759 144.273 278.185 144.83 276.599 145.387C276.579 145.395 276.559 145.399 276.538 145.399C276.518 145.399 276.497 145.394 276.478 145.386C276.459 145.377 276.442 145.365 276.428 145.349C276.413 145.333 276.402 145.314 276.394 145.294L276.392 145.288C276.383 145.264 276.379 145.239 276.38 145.214C276.381 145.188 276.387 145.163 276.398 145.141C276.409 145.119 276.424 145.099 276.443 145.084C276.462 145.068 276.484 145.058 276.507 145.053C276.898 144.916 277.3 144.78 277.702 144.644C279.3 144.075 280.886 143.518 282.483 142.961C283.276 142.677 284.069 142.404 284.862 142.132C285.598 141.831 286.375 141.664 287.161 141.637C288.445 141.737 289.649 142.345 290.54 143.345C291.034 143.84 291.483 144.36 291.931 144.892C292.46 145.51 292.988 146.129 293.517 146.748C295.643 149.248 297.754 151.756 299.85 154.272C301.953 156.796 304.037 159.325 306.102 161.858C306.252 162.043 306.401 162.229 306.55 162.415C307.711 163.825 308.849 165.248 309.999 166.671Z" fill="white"/>
<path d="M289.615 145.402C289.18 144.8 288.602 144.337 287.941 144.063L287.287 144.088C292.417 152.682 299.138 160.045 307.029 165.718C301.224 158.946 295.419 152.174 289.615 145.402Z" fill="white"/>
<path d="M396.669 234.719L370.631 84.6118C370.186 82.1374 368.973 79.8993 367.191 78.2646C365.409 76.6298 363.164 75.6954 360.824 75.6146C360.614 75.6096 360.403 75.6096 360.193 75.6146L342.456 76.2997L340.547 76.3752L331.694 76.7178L329.785 76.7883L324.091 77.01L209.273 81.4482C209.1 81.4582 208.922 81.4582 208.749 81.4531L183.021 80.8738L173.499 80.6622L173.195 80.6572L166.167 80.496L104.931 79.1258L88.6958 78.758L80.6903 78.5817L78.7721 78.5364L69.6437 78.3348L67.7301 78.2895L58.3911 78.0829L56.4775 78.0376L46.2169 77.8059L44.6074 77.7706L35.4556 77.5641L34.0099 77.5338H33.7994C31.3698 77.5445 29.0219 78.4797 27.1708 80.1741C25.3197 81.8684 24.0846 84.2129 23.6838 86.793L0.135329 242.557C-0.103803 244.135 -0.0214729 245.75 0.376599 247.29C0.774671 248.83 1.47895 250.259 2.4407 251.477C3.40245 252.695 4.59865 253.674 5.94643 254.345C7.29421 255.016 8.76136 255.363 10.2462 255.363H145.482C147.473 255.369 149.41 256.057 151.013 257.328L153.577 259.373C155.344 260.773 157.479 261.532 159.673 261.539C185.792 254.117 213.253 254.117 239.372 261.539C240.719 261.543 242.053 261.259 243.297 260.704C244.541 260.148 245.67 259.333 246.62 258.305C248.243 256.557 250.41 255.518 252.702 255.388L387.133 247.761C388.591 247.679 390.016 247.263 391.312 246.539C392.608 245.816 393.746 244.803 394.649 243.568C395.552 242.333 396.199 240.905 396.547 239.379C396.896 237.852 396.937 236.264 396.669 234.719V234.719Z" fill="#CCCCCC"/>
<path d="M359.829 211.311C359.656 216.398 357.615 221.202 354.153 224.669C350.691 228.136 346.093 229.981 341.368 229.798C333.562 229.501 324.247 229.352 314.136 229.58C281.118 230.34 239.637 235.232 214.685 252.828C211.549 255.045 207.843 256.139 204.096 255.956C203.82 255.939 203.552 255.921 203.276 255.895C199.391 255.512 195.73 253.766 192.857 250.924C179.111 237.382 147.587 220.983 75.4247 219.829C75.1244 219.829 74.8323 219.812 74.5402 219.794C72.2029 219.636 69.9176 218.983 67.8148 217.873C65.7119 216.764 63.8329 215.218 62.285 213.326C60.7371 211.434 59.5508 209.232 58.7937 206.846C58.0367 204.46 57.7239 201.936 57.8731 199.42L64.9651 78.2318L66.0281 60.068L67.8944 28.2922C68.0826 25.0922 69.3952 22.0893 71.5656 19.8937C73.7359 17.6981 76.6012 16.4744 79.5793 16.4713H79.6523L122.643 16.7422C140.754 17.6246 155.755 20.1088 167.646 24.1947C171.707 25.5507 175.659 27.2631 179.46 29.3145C184.653 32.0249 189.318 35.7758 193.206 40.3665C195.628 43.2992 198.932 45.22 202.538 45.7921C203.097 45.882 203.661 45.9375 204.226 45.9581C207.551 46.1062 210.832 45.0951 213.582 43.0749C241.666 22.8143 298.897 21.2766 330.503 22.1503C334.923 22.2613 339.147 24.1399 342.351 27.4201C345.555 30.7003 347.51 35.1473 347.836 39.8948L349.118 57.9712L350.392 75.9952L357.743 180.164L359.788 209.144C359.838 209.865 359.852 210.588 359.829 211.311Z" fill="#F2F2F2"/>
<path d="M86.1199 59.1155C112.027 50.216 140.93 52.5721 165.473 65.1097C172.476 68.6685 179.09 73.0544 185.193 78.1867C186.919 79.6455 189.376 77.0361 187.631 75.5616C165.088 56.7358 136.764 47.7927 108.348 50.5291C100.487 51.2865 92.7262 52.9653 85.2032 55.5357C83.0973 56.2591 83.9974 59.8447 86.1198 59.1155H86.1199Z" fill="#3F3D56"/>
<path d="M228.678 79.6269C252.765 65.9955 281.608 63.0229 307.797 70.7607C315.263 72.9614 322.479 76.0503 329.31 79.9703C331.267 81.0947 333.011 77.8911 331.051 76.7647C306.091 62.4248 276.129 59.1237 248.872 67.1174C241.268 69.3513 233.913 72.471 226.938 76.4212C224.973 77.5333 226.714 80.7386 228.678 79.6269Z" fill="#3F3D56"/>
<path d="M228.678 104.377C252.765 90.7453 281.608 87.7728 307.797 95.5105C315.264 97.7112 322.479 100.8 329.31 104.72C331.267 105.845 333.011 102.641 331.051 101.515C306.091 87.1746 276.129 83.8735 248.872 91.8672C241.268 94.1011 233.913 97.2208 226.938 101.171C224.973 102.283 226.714 105.488 228.678 104.377L228.678 104.377Z" fill="#3F3D56"/>
<path d="M228.997 132.963C253.084 119.332 281.927 116.36 308.116 124.097C315.582 126.298 322.798 129.387 329.629 133.307C331.586 134.431 333.33 131.228 331.369 130.101C306.409 115.761 276.447 112.46 249.191 120.454C241.587 122.688 234.232 125.808 227.256 129.758C225.292 130.87 227.032 134.075 228.997 132.963L228.997 132.963Z" fill="#3F3D56"/>
<path d="M228.997 160.048C253.084 146.416 281.927 143.444 308.116 151.181C315.582 153.382 322.798 156.471 329.629 160.391C331.586 161.515 333.33 158.312 331.369 157.185C306.409 142.846 276.447 139.544 249.191 147.538C241.587 149.772 234.232 152.892 227.256 156.842C225.292 157.954 227.032 161.159 228.997 160.048L228.997 160.048Z" fill="#3F3D56"/>
<path d="M228.997 192.374C253.084 178.742 281.927 175.77 308.116 183.508C315.582 185.708 322.798 188.797 329.629 192.717C331.586 193.842 333.33 190.638 331.369 189.512C306.409 175.172 276.447 171.871 249.191 179.864C241.587 182.098 234.232 185.218 227.256 189.168C225.292 190.28 227.032 193.486 228.997 192.374L228.997 192.374Z" fill="#3F3D56"/>
<path d="M243.855 127.998L243.389 128.36C243.546 128.234 243.71 128.115 243.879 128.002L243.855 127.998Z" fill="white"/>
<path d="M86.1199 83.8654C112.027 74.9658 140.93 77.3219 165.473 89.8596C172.476 93.4183 179.09 97.8042 185.193 102.937C186.919 104.395 189.376 101.786 187.631 100.311C165.088 81.4856 136.764 72.5425 108.348 75.2789C100.487 76.0363 92.7262 77.7151 85.2032 80.2855C83.0973 81.0089 83.9974 84.5945 86.1198 83.8654L86.1199 83.8654Z" fill="#3F3D56"/>
<path d="M86.1199 108.615C112.027 99.7156 140.93 102.072 165.473 114.609C172.476 118.168 179.09 122.554 185.193 127.686C186.919 129.145 189.376 126.536 187.631 125.061C165.088 106.235 136.764 97.2923 108.348 100.029C100.487 100.786 92.7262 102.465 85.2032 105.035C83.0973 105.759 83.9974 109.344 86.1198 108.615L86.1199 108.615Z" fill="#3F3D56"/>
<path d="M86.1199 133.365C112.027 124.465 140.93 126.822 165.473 139.359C172.476 142.918 179.09 147.304 185.193 152.436C186.919 153.895 189.376 151.286 187.631 149.811C165.088 130.985 136.764 122.042 108.348 124.779C100.487 125.536 92.7262 127.215 85.2032 129.785C83.0973 130.509 83.9974 134.094 86.1198 133.365L86.1199 133.365Z" fill="#3F3D56"/>
<path d="M86.1199 158.115C112.027 149.215 140.93 151.571 165.473 164.109C172.476 167.668 179.09 172.054 185.193 177.186C186.919 178.645 189.376 176.035 187.631 174.561C165.088 155.735 136.764 146.792 108.348 149.528C100.487 150.286 92.7262 151.965 85.2032 154.535C83.0973 155.258 83.9974 158.844 86.1198 158.115L86.1199 158.115Z" fill="#3F3D56"/>
<path d="M86.1199 182.865C112.027 173.965 140.93 176.321 165.473 188.859C172.476 192.418 179.09 196.804 185.193 201.936C186.919 203.395 189.376 200.785 187.631 199.311C165.088 180.485 136.764 171.542 108.348 174.278C100.487 175.036 92.7262 176.714 85.2032 179.285C83.0973 180.008 83.9974 183.594 86.1198 182.865H86.1199Z" fill="#3F3D56"/>
<path d="M179.46 29.3144V88.6636C179.46 89.8431 177.545 90.8303 174.965 91.1011C174.943 91.0997 174.921 91.1027 174.9 91.1099C174.47 91.1448 174.015 91.1711 173.553 91.1711C172.13 91.1992 170.715 90.9505 169.374 90.4372C169.252 90.3847 169.131 90.3236 169.009 90.2712C168.895 90.2013 168.774 90.1401 168.66 90.0702C168.019 89.6596 167.646 89.1791 167.646 88.6636V24.1947C171.707 25.5507 175.659 27.2631 179.46 29.3144Z" fill="#F50057"/>
<path d="M204.224 43.0796H202.536V254.715H204.224V43.0796Z" fill="#E6E6E6"/>
<path d="M387.791 187.959C388.988 187.841 390.146 187.442 391.185 186.79C392.223 186.138 393.116 185.249 393.8 184.185C394.485 183.121 394.945 181.909 395.147 180.633C395.349 179.357 395.289 178.049 394.971 176.801L430.008 159.192L451.101 122.454L434.521 115.247L420.291 144.851L384.275 170.692C382.363 171.406 380.761 172.851 379.772 174.752C378.784 176.653 378.477 178.878 378.91 181.007C379.343 183.135 380.487 185.018 382.124 186.3C383.76 187.581 385.777 188.171 387.791 187.959V187.959Z" fill="#FFB6B6"/>
<path d="M464.112 87.2609C464.112 87.2609 468.241 88.7121 463.709 97.3355C460.081 104.239 442.407 144.006 435.193 151.814C435.952 153.123 436.285 154.667 436.139 156.203C435.993 157.738 435.377 159.178 434.388 160.295L417.735 146.067C417.416 140.892 420.597 140.378 422.482 140.553L426.313 125.933L439.676 89.8686L461.145 86.1548L464.112 87.2609Z" fill="#F50057"/>
<path d="M464.472 19.665C465.259 16.2374 470.971 13.7065 461.186 8.92109C458.812 7.75971 458.91 3.76018 456.902 1.96905C454.893 0.177914 451.951 -0.652478 449.617 0.599455C447.532 1.71743 446.357 4.24743 446.106 6.74066C445.986 9.25002 446.255 11.7634 446.903 14.1775L446.713 14.4759C450.589 17.6693 454.465 20.8626 458.341 24.0559C459.765 25.2294 461.627 26.4581 463.223 25.5776C465.03 24.5809 463.984 21.7871 464.472 19.665Z" fill="#2F2E41"/>
</g>
<defs>
<clipPath id="clip0_5_141">
<rect width="543" height="447" fill="white"/>
</clipPath>
</defs>
</svg>
